PathFileType	4	(X/Y/Z)	6_coords_data.trc
DataRate	CameraRate	NumFrames	NumMarkers	Units	OrigDataRate	OrigDataStartFrame	OrigNumFrames
30.0	30.0	5	21	m	30.0	51	60
Frame#	Time	THUMB_TIP	THUMB_IP	THUMB_MCP	THUMB_CMC	INDEX_TIP	INDEX_DIP	INDEX_PIP	INDEX_MCP	MIDDLE_TIP	MIDDLE_DIP	MIDDLE_PIP	MIDDLE_MCP	RING_TIP	RING_DIP	RING_PIP	RING_MCP	PINKY_TIP	PINKY_DIP	PINKY_PIP	PINKY_MCP	WRIST
X1	Y1	Z1	X2	Y2	Z2	X3	Y3	Z3	X4	Y4	Z4	X5	Y5	Z5	X6	Y6	Z6	X7	Y7	Z7	X8	Y8	Z8	X9	Y9	Z9	X10	Y10	Z10	X11	Y11	Z11	X12	Y12	Z12	X13	Y13	Z13	X14	Y14	Z14	X15	Y15	Z15	X16	Y16	Z16	X17	Y17	Z17	X18	Y18	Z18	X19	Y19	Z19	X20	Y20	Z20	X21	Y21	Z21
50	1.6666666666666667	0.0721968994140625	-0.06406590270996093	0.9866519775390625	0.054159801483154295	-0.05339640045166016	1.0060499877929687	0.03288589859008789	-0.05137720108032227	1.032489990234375	0.012476799964904785	-0.02924130058288574	1.04972998046875	0.05040079879760742	-0.0571077995300293	0.92175	0.03620190048217774	-0.05837689971923828	0.9400020141601563	0.021956199645996093	-0.05862360000610352	0.9606799926757813	0.0030622398853302002	-0.05431269836425781	0.9973870239257813	0.05610250091552734	-0.024409700393676757	0.9166630249023437	0.03646070098876953	-0.027985599517822264	0.9307930297851562	0.014026000022888183	-0.031353900909423825	0.9517769775390625	-0.006427909851074219	-0.03164990043640137	0.9905750122070313	0.047696998596191406	0.0057070798873901365	0.919155029296875	0.03125060081481933	0.002393860101699829	0.9353189697265625	0.012863499641418457	-0.002227679967880249	0.9574349975585937	-0.004727250099182129	-0.008892009735107422	0.9944949951171875	0.028000200271606445	0.03882550048828125	0.9452760009765625	0.021098800659179687	0.03062420082092285	0.9627109985351563	0.013601499557495117	0.02282859992980957	0.978948974609375	0.0016736799478530879	0.010131999969482422	1.00347998046875	-0.021842199325561522	-0.013699000358581542	1.0723599853515624
51	1.7	0.07235820007324219	-0.06501760101318359	0.9876589965820313	0.05452370071411133	-0.05352000045776367	1.0066599731445312	0.03318000030517578	-0.0510968017578125	1.032949951171875	0.012385700225830078	-0.02886910057067871	1.0498900146484376	0.0492947998046875	-0.05789670181274414	0.9208099975585937	0.03556940078735352	-0.05880569839477539	0.9395640258789062	0.02187809944152832	-0.058593799591064456	0.9607969970703125	0.003748950004577636	-0.05376649856567383	0.9974390258789062	0.05254949951171875	-0.024659400939941407	0.91252001953125	0.03438899993896485	-0.028027000427246093	0.9289429931640625	0.013645500183105468	-0.031106199264526367	0.9516959838867187	-0.005555610179901123	-0.031054800033569335	0.9908410034179688	0.04434439849853516	0.007326670169830322	0.9164669799804688	0.02919309997558594	0.0035539000034332273	0.934093994140625	0.012410900115966798	-0.001411710023880004	0.9570490112304687	-0.003878829956054687	-0.008369830131530762	0.9948740234375	0.02762229919433594	0.040131900787353514	0.945635986328125	0.020919700622558594	0.031762500762939454	0.9630059814453125	0.013695799827575683	0.023799299240112304	0.9790999755859375	0.002001149892807007	0.01061460018157959	1.0036400146484374	-0.022167200088500975	-0.013452899932861329	1.0725400390625
52	1.7333333333333334	0.07311239624023437	-0.0654552001953125	0.9892579956054688	0.05509329986572266	-0.05356039810180664	1.0076599731445313	0.03364310073852539	-0.050968299865722655	1.0334100341796875	0.012340999603271485	-0.028734699249267578	1.0501700439453125	0.0477677001953125	-0.058362998962402345	0.9197760009765625	0.03465549850463867	-0.0589031982421875	0.9390659790039062	0.021543100357055665	-0.05839709854125977	0.9607379760742187	0.004368110179901123	-0.05320600128173828	0.9975560302734375	0.04937200164794922	-0.02402479934692383	0.9095599975585937	0.03247829818725586	-0.027391000747680663	0.9274320068359375	0.013195099830627442	-0.03042799949645996	0.9514199829101563	-0.004960949897766113	-0.030491500854492187	0.9910180053710937	0.04111280059814453	0.009121270179748535	0.9144019775390625	0.027165000915527343	0.004901060104370117	0.93331298828125	0.011942399978637695	-0.000492157995700836	0.9574450073242188	-0.003168839931488037	-0.007894670009613037	0.9948729858398437	0.02739179992675781	0.04094430160522461	0.945844970703125	0.020881500244140625	0.03242309951782227	0.9632930297851563	0.013784700393676758	0.02437299919128418	0.9794320068359375	0.0024219601154327392	0.011143400192260742	1.0038699951171874	-0.022361200332641603	-0.01324079990386963	1.072510009765625
53	1.7666666666666666	0.07361750030517578	-0.06604170227050782	0.9906690063476562	0.05568349838256836	-0.05387889862060547	1.0085700073242188	0.03333769989013672	-0.05113579940795898	1.03422998046875	0.012541199684143066	-0.02868050003051758	1.0505799560546876	0.045845600128173826	-0.05876419830322266	0.9189149780273438	0.03328310012817383	-0.05906769943237305	0.9385490112304687	0.020694999694824218	-0.05836869812011719	0.9605549926757813	0.004576220035552979	-0.05281700134277344	0.9978060302734375	0.04544889831542969	-0.024341800689697265	0.906822021484375	0.02975830078125	-0.027585899353027344	0.92589697265625	0.011984600067138671	-0.03038800048828125	0.9510230102539062	-0.0046515798568725585	-0.03018600082397461	0.9912589721679688	0.038023700714111326	0.009776909828186036	0.9125609741210937	0.02524810028076172	0.0053298001289367675	0.9323909912109375	0.01130270004272461	-0.00022749799489974902	0.9572139892578125	-0.002651070117950439	-0.007727660179138183	0.9951489868164063	0.026768299102783204	0.04086880111694336	0.9454290161132812	0.020462600708007813	0.03247880172729492	0.9630399780273438	0.013543999671936036	0.024522899627685547	0.979260986328125	0.0026423900127410887	0.01139330005645752	1.0040800170898438	-0.022468399047851563	-0.012985500335693359	1.072489990234375
54	1.8	0.07339109802246094	-0.06716449737548828	0.9913610229492188	0.055510299682617184	-0.05427230072021484	1.0091500244140625	0.03305979919433594	-0.0512135009765625	1.0345799560546876	0.01221090030670166	-0.028644599914550782	1.0505699462890625	0.04584460067749024	-0.05887289810180664	0.9188460083007812	0.03341260147094727	-0.05906209945678711	0.9386119995117187	0.021048200607299804	-0.05820029830932617	0.9607490234375	0.0047904601097106935	-0.05260430145263672	0.9979739990234375	0.04435150146484375	-0.02447480010986328	0.905677978515625	0.029152599334716797	-0.02754319953918457	0.9254879760742187	0.012096199989318848	-0.03016699981689453	0.9512940063476563	-0.004169539928436279	-0.02987910079956055	0.9913319702148438	0.03763249969482422	0.010201499938964844	0.912114990234375	0.02524930000305176	0.005660769939422608	0.9323499755859375	0.011876500129699707	7.210250198841001e-05	0.9573809814453125	-0.002011719942092895	-0.007473999977111816	0.9953300170898437	0.02683340072631836	0.04108380126953125	0.94539599609375	0.020610300064086914	0.03265850067138672	0.963072998046875	0.013887100219726563	0.024705999374389647	0.979364013671875	0.00312746000289917	0.011658699989318847	1.004280029296875	-0.022683500289916992	-0.012787699699401855	1.072489990234375
